# xmcd CD database file
#
# Track frame offsets:
#	150
#	15955
#	31732
#	60780
#	78273
#	100425
#	118207
#	132715
#	155266
#	172223
#	191876
#	210480
#	225788
#	244767
#	258995
#	274990
#	286534
#	303033
#
# Disc length: 4433 seconds
#
# Revision: 5
# Processed by: cddbd v1.5.1PL2 Copyright (c) Steve Scherf et al.
# Submitted via: CDex 1.51
#
DISCID=e6114f12
DTITLE=Oscar Benton - Greatest Hits
DYEAR=1999
DGENRE=Blues
TTITLE0=Not The Same Dreams Any More
TTITLE1=I Believe In Love
TTITLE2=St. Louis Blues
TTITLE3=Bonson Hurts Blues
TTITLE4=If You Go Away
TTITLE5=Busted
TTITLE6=Basin Street Blues
TTITLE7=Helpless
TTITLE8=It Ain't Nobody's Business
TTITLE9=I Feel So Good
TTITLE10=How Can I Just Start Again
TTITLE11=I Can't Leave You
TTITLE12=Prisoner Of Love
TTITLE13=My Petite Figur
TTITLE14=The Day I Got Rid Of The Blues
TTITLE15=Bob Dylan "Knokin' On Heaven's Door"
TTITLE16=Tommy Bolin "Hello Again"
TTITLE17=Cocney Rebel "Ritz"
EXTD=SquareMan YEAR: 1999
EXTT0=
EXTT1=
EXTT2=
EXTT3=
EXTT4=
EXTT5=
EXTT6=
EXTT7=
EXTT8=
EXTT9=
EXTT10=
EXTT11=
EXTT12=
EXTT13=
EXTT14=
EXTT15=
EXTT16=
EXTT17=
PLAYORDER=
